PathFileType	4	(X/Y/Z)	D:\Share\Shared_Data\Ergonomics\Sit To Stand Pertubation\S3\Perturbed.trc
DataRate	CameraRate	NumFrames	NumMarkers	Units	OrigDataRate	OrigDataStartFrame	OrigNumFrames	
100	100	12	18	m	100	9526	231
Frame#	Time	R_ASIS			R_Pelvis			V_Sacral			L_Pelvis			L_ASIS			Clavical			R_Acromium			L_Acromium			Sternum			Torso			R_Thigh_Med			R_Thigh_Lat			R_Thigh			R_Shank_Med			R_Shank_Lat			R_Shank			R_Heel			R_Toe			
		X1	Y1	Z1	X2	Y2	Z2	X3	Y3	Z3	X4	Y4	Z4	X5	Y5	Z5	X6	Y6	Z6	X7	Y7	Z7	X8	Y8	Z8	X9	Y9	Z9	X10	Y10	Z10	X11	Y11	Z11	X12	Y12	Z12	X13	Y13	Z13	X14	Y14	Z14	X15	Y15	Z15	X16	Y16	Z16	X17	Y17	Z17	X18	Y18	Z18	

9526	95.25	0.14078523	0.62063336	0.14926271	0.038405109	0.66591656	0.20886697	-0.064433929	0.71394427	0.018476412	0.046467697	0.68849152	-0.19567026	0.14142587	0.62704364	-0.13839201	0.36323901	0.94574799	-0.00042387223	0.38354053	1.0189177	0.15145505	0.39003607	1.024439	-0.13629689	0.33854636	0.8618623	0.0022080152	0.36210358	0.93230884	-0.057098667	0.41444601	0.4593912	0.060125065	0.40345227	0.43565503	0.17446001	0.25125978	0.58647125	0.099468987	0.31071176	0.10452354	0.089108223	0.29395343	0.094197662	0.1716886	0.33300409	0.26782809	0.18776756	0.23320175	0.056636963	0.13537282	0.45226453	0.053808899	0.11459014
9527	95.26	0.14534921	0.62370001	0.14973286	0.043360691	0.66952289	0.20942091	-0.059308208	0.71802539	0.018725582	0.051673889	0.69144379	-0.1954969	0.14613715	0.62955426	-0.13772261	0.36959229	0.94757648	9.3448192e-05	0.38973209	1.0209514	0.15183772	0.39762015	1.0262858	-0.13525728	0.34479211	0.86386755	0.0028094857	0.368741	0.93417322	-0.056173317	0.41704004	0.45834824	0.059650513	0.40630725	0.43466959	0.17378496	0.2562453	0.58754999	0.099520813	0.31097748	0.10444917	0.088986206	0.29422366	0.094033249	0.17152798	0.33443564	0.26764471	0.18727402	0.23328438	0.056653004	0.13535468	0.45241849	0.053655514	0.11461133
9528	95.27	0.14978056	0.62711298	0.15013327	0.048157734	0.67349402	0.20984431	-0.054241859	0.72240649	0.018904936	0.056739376	0.6946109	-0.19529936	0.15081183	0.63244946	-0.13709743	0.37557788	0.95010486	0.0006088264	0.39538239	1.0237151	0.1524184	0.4044704	1.0288519	-0.13451741	0.35103	0.86674231	0.0035270195	0.37495956	0.93669189	-0.055399643	0.41953	0.45721436	0.059296329	0.40905075	0.43375284	0.17332535	0.26119263	0.58873126	0.09958638	0.31120056	0.10441081	0.088919579	0.29445471	0.093889931	0.17142661	0.33581781	0.26745331	0.18695813	0.23334497	0.056669769	0.13535608	0.45252704	0.053535885	0.11464377
9529	95.28	0.15409265	0.63087695	0.15045572	0.052821533	0.6778374	0.21014058	-0.049221516	0.72713269	0.019027029	0.061686115	0.6980451	-0.19506816	0.15544287	0.63573798	-0.13649615	0.38121576	0.95334247	0.0011221131	0.40054205	1.0272054	0.15314577	0.41065652	1.0321337	-0.13406459	0.35729517	0.87050122	0.0043649197	0.38079196	0.93987964	-0.054774452	0.42190164	0.45605478	0.059123951	0.41164008	0.43291772	0.17311482	0.26605167	0.59004205	0.099717377	0.31138089	0.10440689	0.08891011	0.29464032	0.093777878	0.17138486	0.33714816	0.26724728	0.18683698	0.23338631	0.056686493	0.13537535	0.45259454	0.05344846	0.11468808
9530	95.29	0.15829359	0.63499481	0.15070016	0.057374611	0.68254346	0.21033394	-0.044244884	0.73222754	0.019096737	0.066539055	0.70179321	-0.19479782	0.16001843	0.639422	-0.13589449	0.38652328	0.95728656	0.001632751	0.40525748	1.0314097	0.15396646	0.41624722	1.0361049	-0.13386301	0.36357443	0.87512213	0.0053157563	0.38626752	0.9437348	-0.054279999	0.42413528	0.45491092	0.059176003	0.41402942	0.43217282	0.17316429	0.27078625	0.59150537	0.09995903	0.31151941	0.10443449	0.088956055	0.2947879	0.093684074	0.17139479	0.33841342	0.26702713	0.18691035	0.23341103	0.056702065	0.13540994	0.45262619	0.053390865	0.11474323
9531	95.3	0.16238809	0.6394693	0.15087686	0.061835186	0.68759222	0.21046492	-0.039321186	0.73769531	0.019116066	0.071321785	0.70589386	-0.19448825	0.16452187	0.64349994	-0.13526733	0.39151361	0.96192169	0.0021399009	0.40957239	1.0363066	0.15482996	0.42130679	1.0407202	-0.13385933	0.36977237	0.88052966	0.0063468971	0.39140891	0.94823865	-0.053886135	0.42620496	0.45379886	0.059476524	0.41618298	0.43152136	0.17346291	0.27537711	0.59313776	0.10034509	0.31161841	0.10448937	0.089052422	0.29490988	0.093587196	0.17144395	0.33959177	0.26679889	0.18716283	0.23342171	0.056715267	0.13545692	0.45262778	0.053359943	0.114807
9532	95.31	0.16637877	0.6443031	0.15100552	0.066217735	0.69296021	0.2105813	-0.034467045	0.74352661	0.019095873	0.076052345	0.71037573	-0.19414441	0.16893414	0.64796832	-0.13459195	0.39619574	0.96722284	0.0026430073	0.41352905	1.0418694	0.15569206	0.42589301	1.0459246	-0.13399045	0.3757229	0.88660168	0.007400733	0.39623169	0.95336023	-0.05355463	0.42807956	0.4527171	0.060029545	0.41808133	0.43096155	0.17397977	0.27982056	0.59494843	0.10089462	0.31168152	0.10456638	0.089191429	0.29501208	0.093472862	0.17151968	0.34065875	0.26657199	0.187567	0.23342091	0.05672533	0.13551369	0.4526048	0.05335194	0.11487631
9533	95.32	0.17026633	0.64949683	0.15111137	0.070533478	0.69862469	0.21072862	-0.029700207	0.74970306	0.019049198	0.080740738	0.71525592	-0.19377295	0.17323779	0.65282465	-0.13385086	0.40057581	0.97315948	0.0031418123	0.41716666	1.0480679	0.15651773	0.43005688	1.0516652	-0.13418932	0.38125928	0.89321185	0.008416996	0.40074521	0.9590636	-0.053245461	0.42972943	0.45166437	0.060814369	0.41971985	0.43048871	0.17466748	0.28412387	0.59693805	0.10161127	0.31171283	0.10465956	0.089362915	0.29509189	0.093335556	0.17160927	0.34159375	0.26635751	0.18808801	0.23341087	0.05673201	0.13557774	0.45256241	0.053362846	0.11494739
9534	95.33	0.1740517	0.65504834	0.15122096	0.074789162	0.70456628	0.21094365	-0.02503528	0.75619403	0.018947725	0.08538903	0.72053937	-0.19337941	0.17742188	0.65806653	-0.13303374	0.40465869	0.97969867	0.0036359305	0.42051971	1.0548712	0.15728297	0.43384393	1.0579086	-0.13438687	0.3862829	0.90027411	0.0093567419	0.40495471	0.96531586	-0.052923729	0.43113217	0.45065402	0.061782887	0.42110358	0.43009811	0.17546562	0.28829797	0.59909888	0.10248483	0.31171622	0.10476234	0.089554909	0.29514694	0.093169525	0.17169623	0.34238412	0.26616556	0.18868723	0.23339363	0.056735279	0.1356461	0.4525051	0.053388992	0.11501624
9535	95.34	0.17773874	0.66095215	0.15135855	0.07898539	0.71076886	0.21125053	-0.020481846	0.76295593	0.018700939	0.08999276	0.72621735	-0.19296758	0.18148476	0.66369128	-0.13213945	0.40844949	0.9868092	0.0041245208	0.42361563	1.0622498	0.15797588	0.43729562	1.0646541	-0.13450877	0.39077423	0.90775012	0.010206731	0.40886456	0.97209302	-0.052565731	0.43227411	0.44971512	0.062865227	0.42224176	0.42978735	0.1763045	0.29235349	0.60141516	0.10349427	0.31169495	0.10486786	0.08975444	0.29518109	0.092963593	0.17175862	0.34302567	0.26600455	0.18932339	0.23337071	0.056735428	0.13571564	0.45243668	0.053427361	0.11507937
9536	95.35	0.18133672	0.66719794	0.15154407	0.083116417	0.71721814	0.21165672	-0.016042431	0.76993933	0.018217512	0.0945429	0.73226782	-0.19253827	0.18543504	0.66969263	-0.13117699	0.41195508	0.99446393	0.0046060381	0.42647296	1.0701771	0.1585959	0.44045242	1.0719319	-0.13448221	0.39476071	0.91563031	0.010970474	0.4124819	0.97938165	-0.052162292	0.43314996	0.44888223	0.063982986	0.42314542	0.42955643	0.17711235	0.29629868	0.60386591	0.10461066	0.31165176	0.10496979	0.089948814	0.29520169	0.092708023	0.17177472	0.34351999	0.26588235	0.18995302	0.23334335	0.056733219	0.13578337	0.45236099	0.053475441	0.11513406
9537	95.36	0.18486203	0.6737702	0.15179176	0.087171669	0.72389874	0.21214679	-0.011711697	0.77709882	0.017494757	0.099028839	0.73865912	-0.19208865	0.18928993	0.67605829	-0.13016479	0.41518469	1.0026399	0.0050778284	0.42910083	1.0786283	0.15915181	0.44335373	1.0797703	-0.1342717	0.3982868	0.92391382	0.011659691	0.4158175	0.98717743	-0.051718452	0.43376633	0.44818698	0.065063286	0.42382867	0.42940634	0.1778248	0.30014127	0.60642651	0.10580008	0.31158896	0.1050629	0.090127037	0.29520987	0.092418175	0.1717429	0.3438725	0.26580682	0.19053311	0.23331236	0.056729389	0.13584659	0.4522814	0.053530693	0.11517839
